#!OML:ASF H:\Terrain\Patient Classification 1\Walking\steve\steve.ASF
:FULLY-SPECIFIED
:DEGREES
258
root 7.36855 16.2117 -4.90881 4.98469 -3.96898 2.75628
lowerback -0.416125 1.09852 -4.4068
upperback -2.1459 1.42714 -0.280424
thorax -2.07446 0.789815 2.15882
lowerneck -9.88185 0.18932 -1.77062
upperneck 18.8925 0.295645 1.42673
head 7.42082 0.146427 0.788284
rclavicle -9.28231e-015 1.59028e-015
rhumerus -59.2464 -20.2473 -65.9919
rradius 20.5088
rwrist 12.8408
rhand -16.2276 -35.2134
rfingers 7.12502
rthumb 9.98058 -64.9567
lclavicle -9.28231e-015 1.59028e-015
lhumerus -12.311 -2.56781 85.8466
lradius 32.844
lwrist 18.7294
lhand -22.9541 -13.8609
lfingers 7.12502
lthumb 3.48743 16.0903
rfemur -39.2482 4.31533 19.8437
rtibia 37.3958
rfoot -14.2579 4.5534
rtoes -12.4854
lfemur -1.49438 1.79422 -28.0103
ltibia 16.8258
lfoot -18.5833 -1.73652
ltoes -6.13847
259
root 7.37241 16.1999 -4.76096 4.98375 -4.07348 2.903
lowerback -0.361456 1.06328 -4.52574
upperback -2.22271 1.3748 -0.242249
thorax -2.1851 0.769764 2.26344
lowerneck -9.51208 0.235751 -1.63025
upperneck 18.6303 0.401204 1.05936
head 7.26902 0.173494 0.652258
rclavicle -4.88886e-015 -6.16232e-015
rhumerus -59.998 -20.158 -65.199
rradius 20.4476
rwrist 12.9588
rhand -16.2564 -35.3895
rfingers 7.12502
rthumb 9.95275 -65.1342
lclavicle -4.88886e-015 -6.16232e-015
lhumerus -11.6414 -3.41022 85.6808
lradius 33.3094
lwrist 19.5961
lhand -23.0216 -13.7681
lfingers 7.12502
lthumb 3.42219 16.1842
rfemur -39.7268 4.21886 19.8783
rtibia 35.9226
rfoot -14.7843 4.61591
rtoes -15.1193
lfemur -0.309392 1.94732 -28.2104
ltibia 15.6564
lfoot -18.442 -1.76424
ltoes -6.86078
260
root 7.3777 16.1836 -4.61429 4.90843 -4.12181 3.30292
lowerback -0.229913 0.982668 -4.88083
upperback -2.27352 1.25435 -0.274891
thorax -2.31129 0.719633 2.42779
lowerneck -9.45172 0.316126 -1.41863
upperneck 18.5784 0.554678 0.642311
head 7.24157 0.224475 0.494789
rclavicle -9.90662e-015 -7.95139e-015
rhumerus -60.605 -20.0529 -64.4488
rradius 20.2666
rwrist 13.072
rhand -15.9213 -34.4257
rfingers 7.12502
rthumb 10.2761 -64.1547
lclavicle -9.90662e-015 -7.95139e-015
lhumerus -10.8896 -3.26456 85.4691
lradius 33.6085
lwrist 19.7734
lhand -22.2079 -14.3989
lfingers 7.12502
lthumb 4.20802 15.5393
rfemur -40.1684 3.80284 19.7361
rtibia 34.6158
rfoot -14.0528 5.70509
rtoes -11.1283
lfemur 1.00627 1.97596 -28.6761
ltibia 14.2821
lfoot -18.2275 -1.85967
ltoes -6.18605
261
root 7.38068 16.1824 -4.4686 4.89984 -3.83747 3.59116
lowerback -0.17835 0.833869 -5.04595
upperback -2.27703 1.04924 -0.360598
thorax -2.3298 0.619958 2.43546
lowerneck -9.65927 0.352462 -1.26887
upperneck 18.7375 0.591029 0.593372
head 7.33061 0.247275 0.458477
rclavicle -6.38207e-015 -7.95139e-016
rhumerus -61.2345 -20.21 -63.7772
rradius 20.2532
rwrist 13.0133
rhand -15.5917 -33.2986
rfingers 7.12502
rthumb 10.594 -63.0116
lclavicle -6.38207e-015 -7.95139e-016
lhumerus -10.3111 -2.97653 85.3213
lradius 34.2471
lwrist 19.7326
lhand -21.9382 -14.7441
lfingers 7.12502
lthumb 4.46846 15.1888
rfemur -40.5861 3.22857 19.6666
rtibia 33.4906
rfoot -13.1887 7.03183
rtoes -6.85205
lfemur 2.45474 2.06607 -28.9483
ltibia 12.5412
lfoot -17.8361 -1.99424
ltoes -7.06476
262
root 7.38263 16.1768 -4.32288 4.89435 -3.45807 3.62423
lowerback -0.145096 0.707934 -4.88131
upperback -2.21916 0.882332 -0.396172
thorax -2.27137 0.530668 2.31038
lowerneck -9.53539 0.32596 -1.46129
upperneck 18.5488 0.522609 0.920438
head 7.24587 0.230971 0.589493
rclavicle -7.85821e-015 1.98785e-016
rhumerus -61.9071 -20.5326 -63.1553
rradius 20.456
rwrist 12.9962
rhand -15.6791 -32.8192
rfingers 7.12502
rthumb 10.5097 -62.5365
lclavicle -7.85821e-015 1.98785e-016
lhumerus -9.92063 -3.50923 85.2668
lradius 35.4024
lwrist 20.2351
lhand -23.5132 -14.0215
lfingers 7.12502
lthumb 2.9475 15.9379
rfemur -41.0014 2.55929 19.9322
rtibia 32.4917
rfoot -12.6507 8.08885
rtoes -8.31333
lfemur 4.11747 2.32271 -28.879
ltibia 10.4105
lfoot -17.1619 -2.3776
ltoes -7.87828
263
root 7.38563 16.1582 -4.17715 4.87396 -3.26381 3.58059
lowerback -0.237701 0.644252 -4.67113
upperback -2.04797 0.81057 -0.372222
thorax -2.03344 0.483125 2.22149
lowerneck -9.60584 0.333018 -1.78865
upperneck 18.3445 0.525687 1.25848
head 7.18966 0.240845 0.753286
rclavicle -2.01937e-014 -1.0138e-014
rhumerus -62.3807 -21.3425 -62.0744
rradius 20.3224
rwrist 13.6523
rhand -16.0456 -31.879
rfingers 7.12502
rthumb 10.1562 -61.6139
lclavicle -2.01937e-014 -1.0138e-014
lhumerus -9.1402 -4.3087 85.1489
lradius 36.0902
lwrist 21.0585
lhand -24.9218 -13.6189
lfingers 7.12502
lthumb 1.5871 16.355
rfemur -41.4267 1.96338 20.3243
rtibia 31.5445
rfoot -12.0034 9.05218
rtoes -7.87596
lfemur 5.97455 2.1602 -28.8113
ltibia 8.06178
lfoot -16.381 -2.41342
ltoes -7.72186
264
root 7.38447 16.1397 -4.03276 4.91477 -3.23411 3.54081
lowerback -0.271954 0.577571 -4.67686
upperback -2.00391 0.726756 -0.254892
thorax -1.96428 0.4403 2.34768
lowerneck -9.76698 0.401697 -1.85402
upperneck 18.3672 0.656522 1.143
head 7.22404 0.288978 0.7392
rclavicle 4.50372e-015 -4.57205e-015
rhumerus -62.7784 -21.8909 -60.9252
rradius 20.0133
rwrist 14.2331
rhand -16.3762 -31.0821
rfingers 7.12502
rthumb 9.8372 -60.8323
lclavicle 4.50372e-015 -4.57205e-015
lhumerus -8.41603 -4.6123 85.0178
lradius 36.4081
lwrist 21.3188
lhand -24.9737 -13.7488
lfingers 7.12502
lthumb 1.53699 16.2254
rfemur -41.8129 1.96294 20.5065
rtibia 30.6141
rfoot -11.987 9.50594
rtoes -4.14575
lfemur 7.93143 2.14939 -28.7606
ltibia 5.38535
lfoot -15.2403 -2.71723
ltoes -5.21052
265
root 7.37965 16.1176 -3.89103 4.95729 -3.17006 3.62527
lowerback -0.189641 0.464198 -4.83976
upperback -2.02499 0.569539 -0.209896
thorax -2.02323 0.366687 2.48705
lowerneck -10.024 0.461456 -1.47657
upperneck 18.5236 0.751089 0.753696
head 7.32276 0.324753 0.560275
rclavicle 6.83633e-015 2.18663e-015
rhumerus -63.1242 -21.8865 -60.3912
rradius 19.9314
rwrist 14.1306
rhand -16.0951 -31.2997
rfingers 7.12502
rthumb 10.1084 -61.0369
lclavicle 6.83633e-015 2.18663e-015
lhumerus -7.77338 -4.75883 84.7577
lradius 36.6798
lwrist 21.3203
lhand -24.3548 -14.2569
lfingers 7.12502
lthumb 2.13475 15.7121
rfemur -42.1835 2.25275 20.4046
rtibia 29.8283
rfoot -12.3268 9.71525
rtoes -1.43641
lfemur 11.2102 2.09151 -28.8241
ltibia 6.36111e-015
lfoot -12.8238 -2.48807
ltoes -3.23794
266
root 7.37737 16.0958 -3.74517 4.92528 -2.94092 3.9587
lowerback -0.221927 0.364553 -5.01123
upperback -1.88449 0.438439 -0.389381
thorax -1.85004 0.29586 2.40139
lowerneck -10.2243 0.38439 -1.24016
upperneck 18.461 0.619746 0.677801
head 7.34066 0.271608 0.484586
rclavicle -1.03275e-014 -2.28602e-014
rhumerus -63.5202 -22.2278 -59.9848
rradius 20.0612
rwrist 13.9936
rhand -15.2726 -32.7108
rfingers 7.12502
rthumb 10.9019 -62.4077
lclavicle -1.03275e-014 -2.28602e-014
lhumerus -6.99819 -5.3639 84.3506
lradius 37.1187
lwrist 21.8571
lhand -23.86 -14.1575
lfingers 7.12502
lthumb 2.61258 15.8063
rfemur -42.5087 2.19546 20.0736
rtibia 29.1706
rfoot -12.2879 10.2375
rtoes 1.32283
lfemur 11.7982 1.86829 -29.1797
ltibia 3.18055e-015
lfoot -13.1471 -2.45596
ltoes -4.82619
267
root 7.3777 16.0832 -3.59394 4.87261 -2.55215 4.50402
lowerback -0.16476 0.255605 -5.35496
upperback -1.829 0.2861 -0.549052
thorax -1.81504 0.221927 2.4316
lowerneck -10.1769 0.239802 -1.54993
upperneck 18.4074 0.452564 0.798976
head 7.31549 0.181344 0.559788
rclavicle -1.8692e-014 6.36111e-015
rhumerus -64.0162 -22.3604 -59.6149
rradius 20.2993
rwrist 13.7099
rhand -14.9179 -34.0142
rfingers 7.12502
rthumb 11.2439 -63.6929
lclavicle -1.8692e-014 6.36111e-015
lhumerus -6.55448 -5.49974 84.3401
lradius 37.7522
lwrist 22.0726
lhand -23.8735 -13.4326
lfingers 7.12502
lthumb 2.59948 16.5313
rfemur -42.811 1.49829 19.7098
rtibia 28.6846
rfoot -11.8101 11.0821
rtoes 3.68969
lfemur 12.3503 1.47991 -29.7757
ltibia 1.27222e-014
lfoot -13.366 -2.39897
ltoes -4.80936
268
root 7.37876 16.0653 -3.44256 4.93401 -2.43504 4.63981
lowerback -0.10682 0.192304 -5.3942
upperback -1.93425 0.194592 -0.500186
thorax -1.94936 0.182633 2.5048
lowerneck -10.0917 0.252883 -1.54748
upperneck 18.4224 0.505768 0.607329
head 7.30535 0.189551 0.501722
rclavicle -1.51045e-014 -2.64384e-014
rhumerus -64.4947 -22.188 -59.2012
rradius 20.3983
rwrist 13.3768
rhand -15.0833 -33.9442
rfingers 7.12502
rthumb 11.0844 -63.6315
lclavicle -1.51045e-014 -2.64384e-014
lhumerus -6.26551 -5.55377 84.3973
lradius 38.1266
lwrist 22.2163
lhand -24.4441 -13.6567
lfingers 7.12502
lthumb 2.04844 16.3132
rfemur -43.1051 1.13229 19.8154
rtibia 28.2419
rfoot -11.2533 11.3528
rtoes 2.46159
lfemur 12.7797 1.3686 -29.9285
ltibia 3.18055e-014
lfoot -13.3411 -2.42609
ltoes -3.71183
269
root 7.3805 16.0485 -3.28336 4.90039 -2.23455 4.83011
lowerback -0.168694 0.108415 -5.43537
upperback -1.89571 0.0874288 -0.524797
thorax -1.86596 0.126742 2.50442
lowerneck -9.74664 0.299694 -1.11829
upperneck 17.9112 0.559855 0.230877
head 7.07986 0.213436 0.310464
rclavicle -2.03319e-014 -1.07344e-014
rhumerus -64.9402 -22.6655 -58.1526
rradius 20.2459
rwrist 13.7031
rhand -15.0453 -33.1348
rfingers 7.12502
rthumb 11.1211 -62.8201
lclavicle -2.03319e-014 -1.07344e-014
lhumerus -5.75127 -6.05458 84.2245
lradius 38.2137
lwrist 22.6184
lhand -24.9587 -14.2905
lfingers 7.12502
lthumb 1.55142 15.6836
rfemur -43.1245 0.758973 19.799
rtibia 27.8547
rfoot -11.1485 11.1703
rtoes -2.38158
lfemur 13.4231 1.19112 -30.1501
ltibia 3.49861e-014
lfoot -13.2857 -2.43148
ltoes -3.04592
270
root 7.37849 16.0362 -3.12688 4.99943 -2.14598 4.78123
lowerback -0.295738 0.0761745 -5.27855
upperback -1.87448 0.0552549 -0.494144
thorax -1.7691 0.105651 2.44888
lowerneck -9.55469 0.266623 -1.03765
upperneck 17.5256 0.514642 0.135122
head 6.92214 0.190472 0.26072
rclavicle 6.21202e-018 -7.55382e-015
rhumerus -65.3786 -23.5541 -56.7331
rradius 20.0751
rwrist 14.422
rhand -14.9036 -32.7641
rfingers 7.12502
rthumb 11.2577 -62.442
lclavicle 6.21202e-018 -7.55382e-015
lhumerus -5.28335 -6.47606 84.0917
lradius 38.2727
lwrist 23.0388
lhand -24.2329 -14.2443
lfingers 7.12502
lthumb 2.25246 15.7236
rfemur -43.2183 0.800806 19.8775
rtibia 27.4313
rfoot -11.2618 10.9411
rtoes -5.5329
lfemur 13.9189 1.11113 -30.0743
ltibia -2.8625e-014
lfoot -13.2902 -2.47669
ltoes -2.32305
271
root 7.36947 16.0254 -2.981 5.1748 -2.05355 4.72375
lowerback -0.275938 0.00328845 -5.27742
upperback -1.95551 -0.0442825 -0.383447
thorax -1.85579 0.0605645 2.56352
lowerneck -9.78011 0.277199 -1.35122
upperneck 17.7693 0.542629 0.372231
head 7.03894 0.2026 0.393014
rclavicle 9.01985e-015 8.74653e-015
rhumerus -65.6758 -23.9478 -55.8872
rradius 20.0634
rwrist 14.7363
rhand -14.7966 -33.2107
rfingers 7.12502
rthumb 11.3609 -62.8829
lclavicle 9.01985e-015 8.74653e-015
lhumerus -5.05805 -6.96255 83.9305
lradius 38.6068
lwrist 23.6688
lhand -22.5973 -13.6745
lfingers 7.12502
lthumb 3.832 16.2708
rfemur -43.3807 1.42261 19.6152
rtibia 27.1058
rfoot -11.378 10.5314
rtoes -3.84366
lfemur 14.3144 1.00433 -29.9252
ltibia -1.90833e-014
lfoot -13.2757 -2.74647
ltoes -1.15099
